<?xml version="1.0" encoding="UTF-8"?>
<svg xmlns="http://www.w3.org/2000/svg" xmlns:xlink="http://www.w3.org/1999/xlink" width="3000" height="3000" viewBox="0 0 3000 3000">

<path fill-rule="nonzero" fill="rgb(83.201599%, 0%, 0%)" fill-opacity="1" d="M 2609.71875 1781.398438 C 2552.210938 2211.007812 2253.289062 2719.722656 1939.660156 2850.230469 C 1891.160156 2870.414062 1826.628906 2837.089844 1775.199219 2829.699219 C 1732.28125 2823.53125 1639.179688 2842.6875 1569.371094 2858.691406 C 1485.609375 2877.898438 1416.679688 2802.445312 1353.410156 2800.042969 C 1200.320312 2794.230469 1169.421875 2889.820312 1026.011719 2820.578125 C 843.445312 2732.4375 720.773438 2570.535156 590.296875 2381.855469 C 461.371094 2195.425781 378.488281 1965.03125 378.488281 1737.160156 C 378.488281 1411.328125 475.5 1112.019531 695.117188 934.839844 C 892.859375 775.300781 1175.519531 734.621094 1468.890625 734.621094 C 1757 734.621094 2079.859375 771.140625 2295.53125 919.878906 C 2543.390625 1090.820312 2660.941406 1398.691406 2609.71875 1781.398438 "/>
<path fill-rule="nonzero" fill="rgb(91.796875%, 20.384216%, 20.384216%)" fill-opacity="1" d="M 2264.148438 1261.699219 C 2264.148438 1335.648438 2204.199219 1395.601562 2130.25 1395.601562 C 2094.738281 1395.601562 2060.691406 1381.488281 2035.578125 1356.378906 C 2010.46875 1331.269531 1996.359375 1297.210938 1996.359375 1261.699219 C 1996.359375 1226.191406 2010.46875 1192.140625 2035.578125 1167.03125 C 2060.691406 1141.921875 2094.738281 1127.808594 2130.25 1127.808594 C 2204.199219 1127.808594 2264.148438 1187.761719 2264.148438 1261.699219 "/>
<path fill-rule="nonzero" fill="rgb(50.976562%, 88.671875%, 0%)" fill-opacity="1" d="M 1383.710938 785.03125 C 1413.769531 311.019531 814.230469 30.21875 497.46875 177.460938 C 526.34375 458.640625 978.890625 876.828125 1383.710938 785.03125 "/>
<path fill-rule="nonzero" fill="rgb(61.914062%, 94.53125%, 17.651367%)" fill-opacity="1" d="M 610.363281 144.199219 C 604.617188 145.078125 598.914062 146.058594 593.261719 147.140625 C 598.914062 146.058594 604.617188 145.078125 610.363281 144.199219 Z M 593.261719 147.140625 C 587.609375 148.210938 582.007812 149.390625 576.453125 150.671875 C 582.007812 149.390625 587.609375 148.210938 593.261719 147.140625 Z M 500.085938 196.371094 C 500.527344 199.039062 500.933594 201.710938 501.445312 204.398438 C 500.933594 201.710938 500.527344 199.039062 500.085938 196.371094 Z M 502.40625 208.960938 C 503.03125 212.011719 503.632812 215.050781 504.347656 218.128906 C 503.632812 215.050781 503.03125 212.011719 502.40625 208.960938 Z M 505.789062 223.890625 C 506.457031 226.570312 507.085938 229.25 507.816406 231.941406 C 507.085938 229.25 506.457031 226.570312 505.789062 223.890625 Z M 509.632812 238.191406 C 510.390625 240.808594 511.113281 243.429688 511.933594 246.070312 C 511.113281 243.429688 510.390625 240.808594 509.632812 238.191406 Z M 513.476562 250.769531 C 514.507812 253.960938 515.515625 257.148438 516.628906 260.359375 C 515.515625 257.148438 514.503906 253.949219 513.476562 250.769531 Z M 518.65625 265.890625 C 519.671875 268.691406 520.664062 271.488281 521.742188 274.308594 C 520.664062 271.488281 519.671875 268.691406 518.65625 265.890625 Z M 525.027344 282.539062 C 525.847656 284.570312 526.628906 286.589844 527.480469 288.628906 C 526.628906 286.589844 525.847656 284.570312 525.027344 282.539062 Z M 528.640625 291.300781 C 642.164062 555.871094 1120.160156 492.011719 1383.710938 785.039062 C 1030.921875 865.03125 641.925781 557.71875 528.640625 291.300781 Z M 1242.171875 389.128906 C 1246.621094 394.160156 1251 399.261719 1255.28125 404.421875 C 1251 399.261719 1246.621094 394.160156 1242.171875 389.128906 Z M 1255.28125 404.421875 C 1259.570312 409.578125 1263.769531 414.808594 1267.890625 420.101562 C 1263.769531 414.808594 1259.570312 409.578125 1255.28125 404.421875 "/>
<path fill-rule="nonzero" fill="rgb(61.914062%, 94.53125%, 17.651367%)" fill-opacity="1" d="M 984.632812 510.570312 C 984.632812 525.710938 996.902344 537.980469 1012.039062 537.980469 C 1019.308594 537.980469 1026.28125 535.101562 1031.421875 529.960938 C 1036.558594 524.820312 1039.449219 517.839844 1039.449219 510.570312 C 1039.449219 503.300781 1036.558594 496.328125 1031.421875 491.191406 C 1026.28125 486.050781 1019.308594 483.160156 1012.039062 483.160156 C 996.902344 483.160156 984.632812 495.441406 984.632812 510.570312 "/>
<path fill-rule="nonzero" fill="rgb(61.914062%, 94.53125%, 17.651367%)" fill-opacity="1" d="M 924.125 508.25 C 924.125 516.960938 931.1875 524.019531 939.898438 524.019531 C 944.082031 524.019531 948.09375 522.359375 951.054688 519.398438 C 954.011719 516.441406 955.671875 512.429688 955.671875 508.25 C 955.671875 499.539062 948.609375 492.46875 939.898438 492.46875 C 931.1875 492.46875 924.125 499.539062 924.125 508.25 "/>
<path fill-rule="nonzero" fill="rgb(41.967773%, 72.851562%, 0%)" fill-opacity="1" d="M 699.453125 138.230469 C 823.304688 139.828125 958.351562 180.050781 1075.589844 251.320312 C 868.953125 179.078125 716.449219 150.800781 497.46875 177.449219 C 556.863281 149.839844 626.191406 137.289062 699.453125 138.230469 Z M 1081.851562 255.179688 C 1084.898438 257.070312 1087.949219 258.960938 1090.96875 260.890625 C 1087.949219 258.960938 1084.898438 257.070312 1081.851562 255.179688 Z M 1098.910156 266.070312 C 1101.738281 267.929688 1104.570312 269.789062 1107.378906 271.691406 C 1104.570312 269.789062 1101.738281 267.929688 1098.910156 266.070312 Z M 1116.128906 277.730469 C 1118.800781 279.589844 1121.460938 281.441406 1124.089844 283.328125 C 1121.460938 281.441406 1118.800781 279.589844 1116.128906 277.730469 Z M 1132.050781 289.128906 C 1134.898438 291.230469 1137.75 293.320312 1140.570312 295.460938 C 1137.75 293.320312 1134.898438 291.230469 1132.050781 289.128906 Z M 1147.921875 301.128906 C 1150.75 303.328125 1153.578125 305.53125 1156.378906 307.78125 C 1153.578125 305.53125 1150.75 303.328125 1147.921875 301.128906 Z M 1164.089844 314.070312 C 1166.660156 316.191406 1169.25 318.300781 1171.789062 320.460938 C 1169.25 318.300781 1166.660156 316.191406 1164.089844 314.070312 Z M 1179.929688 327.511719 C 1182.261719 329.539062 1184.589844 331.558594 1186.890625 333.621094 C 1184.589844 331.558594 1182.261719 329.539062 1179.929688 327.511719 Z M 1194.910156 340.96875 C 1197.171875 343.058594 1199.429688 345.128906 1201.660156 347.25 C 1199.429688 345.128906 1197.171875 343.058594 1194.910156 340.96875 Z M 1209.648438 355.019531 C 1211.800781 357.128906 1213.960938 359.21875 1216.078125 361.351562 C 1213.960938 359.21875 1211.789062 357.121094 1209.648438 355.019531 Z M 1223.359375 368.859375 C 1225.609375 371.210938 1227.890625 373.53125 1230.109375 375.910156 C 1227.890625 373.53125 1225.609375 371.210938 1223.359375 368.859375 Z M 1241.539062 388.441406 C 1241.941406 388.890625 1242.339844 389.339844 1242.738281 389.78125 C 1242.339844 389.328125 1241.941406 388.878906 1241.539062 388.441406 Z M 1254.480469 403.488281 C 1254.96875 404.070312 1255.449219 404.648438 1255.929688 405.230469 C 1255.449219 404.648438 1254.96875 404.070312 1254.480469 403.488281 Z M 1267.089844 419.101562 C 1267.789062 420 1268.480469 420.898438 1269.179688 421.800781 C 1268.480469 420.898438 1267.789062 420 1267.089844 419.101562 Z M 1271.699219 425.070312 C 1272.980469 426.761719 1274.25 428.441406 1275.519531 430.140625 C 1274.25 428.441406 1272.980469 426.761719 1271.699219 425.070312 Z M 1277.929688 433.398438 C 1278.890625 434.71875 1279.859375 436.03125 1280.820312 437.359375 C 1279.859375 436.03125 1278.890625 434.71875 1277.929688 433.398438 Z M 1284.398438 442.371094 C 1285.121094 443.390625 1285.839844 444.410156 1286.550781 445.441406 C 1285.839844 444.410156 1285.121094 443.390625 1284.398438 442.371094 Z M 1290.351562 450.949219 C 1290.980469 451.871094 1291.601562 452.78125 1292.210938 453.691406 C 1291.601562 452.78125 1290.96875 451.871094 1290.351562 450.949219 Z M 1295.050781 457.949219 C 1296.121094 459.558594 1297.179688 461.179688 1298.230469 462.800781 C 1297.171875 461.179688 1296.121094 459.558594 1295.050781 457.949219 Z M 1300.511719 466.371094 C 1301.441406 467.820312 1302.359375 469.28125 1303.269531 470.738281 C 1302.359375 469.28125 1301.441406 467.820312 1300.511719 466.371094 Z M 1305.671875 474.640625 C 1306.789062 476.460938 1307.898438 478.28125 1309 480.109375 C 1307.898438 478.28125 1306.789062 476.460938 1305.671875 474.640625 Z M 1310.148438 482.050781 C 1311.410156 484.171875 1312.648438 486.300781 1313.878906 488.441406 C 1312.648438 486.300781 1311.410156 484.171875 1310.148438 482.050781 Z M 1315.820312 491.851562 C 1316.710938 493.421875 1317.601562 494.988281 1318.46875 496.570312 C 1317.601562 494.988281 1316.710938 493.421875 1315.820312 491.851562 Z M 1320.851562 500.921875 C 1321.699219 502.511719 1322.550781 504.089844 1323.398438 505.679688 C 1322.558594 504.089844 1321.699219 502.511719 1320.851562 500.921875 Z M 1325.628906 509.960938 C 1326.339844 511.328125 1327.050781 512.699219 1327.75 514.070312 C 1327.050781 512.699219 1326.339844 511.328125 1325.628906 509.960938 Z M 1330.519531 519.628906 C 1331.070312 520.738281 1331.628906 521.851562 1332.171875 522.960938 C 1331.628906 521.851562 1331.070312 520.738281 1330.519531 519.628906 Z M 1335.058594 529.03125 C 1335.5 529.980469 1335.949219 530.929688 1336.390625 531.878906 C 1335.949219 530.921875 1335.5 529.980469 1335.058594 529.03125 Z M 1339.101562 537.828125 C 1339.621094 539 1340.148438 540.171875 1340.660156 541.339844 C 1340.148438 540.171875 1339.621094 539 1339.101562 537.828125 Z M 1342.671875 545.988281 C 1343.371094 547.621094 1344.070312 549.25 1344.761719 550.898438 C 1344.070312 549.25 1343.371094 547.621094 1342.671875 545.988281 Z M 1346.371094 554.839844 C 1347.078125 556.601562 1347.800781 558.359375 1348.5 560.128906 C 1347.800781 558.359375 1347.089844 556.601562 1346.371094 554.839844 Z M 1350.089844 564.21875 C 1350.769531 565.988281 1351.460938 567.769531 1352.128906 569.550781 C 1351.460938 567.769531 1350.769531 565.988281 1350.089844 564.21875 Z M 1353.550781 573.441406 C 1354.261719 575.378906 1354.96875 577.328125 1355.648438 579.289062 C 1354.96875 577.328125 1354.261719 575.378906 1353.550781 573.441406 Z M 1356.738281 582.429688 C 1357.429688 584.449219 1358.121094 586.46875 1358.789062 588.5 C 1358.121094 586.46875 1357.429688 584.449219 1356.738281 582.429688 Z M 1360.398438 593.53125 C 1360.878906 595.03125 1361.371094 596.53125 1361.839844 598.039062 C 1361.371094 596.53125 1360.878906 595.03125 1360.398438 593.53125 Z M 1363.269531 602.828125 C 1363.78125 604.519531 1364.28125 606.210938 1364.769531 607.910156 C 1364.28125 606.210938 1363.78125 604.519531 1363.269531 602.828125 Z M 1365.871094 611.800781 C 1366.441406 613.859375 1367.019531 615.910156 1367.558594 617.980469 C 1367.019531 615.910156 1366.441406 613.859375 1365.871094 611.800781 Z M 1368.621094 622.078125 C 1369.058594 623.808594 1369.511719 625.539062 1369.941406 627.269531 C 1369.511719 625.539062 1369.058594 623.808594 1368.621094 622.078125 Z M 1371.441406 633.621094 C 1371.730469 634.859375 1372.03125 636.089844 1372.308594 637.328125 C 1372.03125 636.089844 1371.730469 634.859375 1371.441406 633.621094 Z M 1373.429688 642.578125 C 1373.800781 644.289062 1374.171875 645.988281 1374.519531 647.710938 C 1374.171875 645.988281 1373.800781 644.289062 1373.429688 642.578125 Z M 1377.46875 663.660156 C 1377.71875 665.089844 1377.96875 666.53125 1378.210938 667.96875 C 1377.96875 666.53125 1377.71875 665.101562 1377.46875 663.660156 Z M 1379.011719 673.269531 C 1379.238281 674.839844 1379.488281 676.410156 1379.71875 677.988281 C 1379.5 676.410156 1379.238281 674.839844 1379.011719 673.269531 Z M 1381.820312 695.109375 C 1381.960938 696.371094 1382.101562 697.621094 1382.230469 698.878906 C 1382.101562 697.621094 1381.949219 696.371094 1381.820312 695.109375 Z M 1383.539062 714.691406 C 1383.671875 716.558594 1383.808594 718.421875 1383.921875 720.300781 C 1383.808594 718.421875 1383.671875 716.558594 1383.539062 714.691406 Z M 1384.75 755.96875 C 1384.738281 758.371094 1384.71875 760.769531 1384.660156 763.179688 C 1384.71875 760.769531 1384.730469 758.371094 1384.75 755.96875 Z M 1384.660156 763.179688 C 1384.570312 766.800781 1384.449219 770.429688 1384.289062 774.078125 C 1384.449219 770.441406 1384.570312 766.800781 1384.660156 763.179688 "/>
<path fill-rule="nonzero" fill="rgb(28.637695%, 48.631287%, 1.177979%)" fill-opacity="1" d="M 835.367188 298.511719 C 1055 428.160156 1371.910156 692 1508.671875 937.5 L 1480.261719 948.269531 C 1303.96875 713.480469 1043.679688 442.730469 833.742188 302.800781 L 835.367188 298.511719 "/>
<path fill-rule="nonzero" fill="rgb(16.868591%, 6.665039%, 0%)" fill-opacity="1" d="M 1463.578125 952.351562 C 1513.460938 696.890625 1612.890625 509.019531 1741.691406 284.671875 C 1807.820312 291.25 1848.488281 317.910156 1887.339844 346.011719 C 1673.789062 495.628906 1608.578125 743.199219 1513.230469 957.910156 L 1463.578125 952.351562 "/>
<path fill-rule="nonzero" fill="rgb(16.868591%, 6.665039%, 0%)" fill-opacity="1" d="M 1689.929688 883.230469 L 1706.230469 920.761719 C 1571.199219 979.421875 1404.699219 979.941406 1251.988281 933.101562 L 1263.988281 893.988281 C 1408.578125 938.339844 1566.199219 936.980469 1689.929688 883.230469 "/>
<path fill-rule="nonzero" fill="rgb(91.796875%, 20.384216%, 20.384216%)" fill-opacity="1" d="M 2295.128906 1476.53125 C 2295.128906 1488.429688 2290.398438 1499.851562 2281.980469 1508.261719 C 2273.570312 1516.671875 2262.160156 1521.398438 2250.261719 1521.398438 C 2238.359375 1521.398438 2226.941406 1516.671875 2218.53125 1508.261719 C 2210.121094 1499.851562 2205.390625 1488.429688 2205.390625 1476.53125 C 2205.390625 1464.628906 2210.121094 1453.21875 2218.53125 1444.808594 C 2226.941406 1436.390625 2238.359375 1431.671875 2250.261719 1431.671875 C 2275.039062 1431.671875 2295.128906 1451.75 2295.128906 1476.53125 "/>
<path fill-rule="evenodd" fill="rgb(65.039062%, 5.099487%, 5.099487%)" fill-opacity="1" d="M 695.117188 934.828125 C 687.867188 940.679688 680.765625 946.691406 673.777344 952.808594 C 680.765625 946.691406 687.867188 940.691406 695.117188 934.828125 Z M 666.871094 959.050781 C 662.34375 963.121094 657.824219 967.199219 653.410156 971.371094 C 657.824219 967.199219 662.347656 963.121094 666.871094 959.050781 Z M 645.234375 979.359375 C 641.289062 983.210938 637.351562 987.070312 633.503906 991.019531 C 637.351562 987.070312 641.289062 983.210938 645.234375 979.359375 Z M 625.53125 999.390625 C 621.863281 1003.269531 618.21875 1007.171875 614.640625 1011.128906 C 618.21875 1007.171875 621.863281 1003.269531 625.53125 999.390625 Z M 606.46875 1020.359375 C 603.074219 1024.238281 599.710938 1028.171875 596.390625 1032.128906 C 599.710938 1028.171875 603.074219 1024.238281 606.46875 1020.359375 Z M 588.660156 1041.5 C 585.253906 1045.710938 581.90625 1049.96875 578.589844 1054.25 C 581.90625 1049.96875 585.253906 1045.710938 588.660156 1041.5 Z M 571.683594 1063.25 C 568.253906 1067.820312 564.902344 1072.449219 561.570312 1077.101562 C 564.902344 1072.449219 568.253906 1067.820312 571.683594 1063.25 Z M 555.285156 1085.910156 C 551.902344 1090.769531 548.617188 1095.710938 545.339844 1100.648438 C 548.617188 1095.699219 551.902344 1090.769531 555.285156 1085.910156 Z M 539.636719 1109.230469 C 535.90625 1115.019531 532.289062 1120.890625 528.695312 1126.789062 C 532.289062 1120.890625 535.90625 1115.011719 539.636719 1109.230469 Z M 524.84375 1133.019531 C 520.058594 1141.039062 515.398438 1149.148438 510.855469 1157.351562 C 515.398438 1149.148438 520.058594 1141.039062 524.84375 1133.019531 Z M 507.488281 1163.660156 C 504.09375 1169.921875 500.722656 1176.191406 497.46875 1182.558594 C 500.722656 1176.191406 504.09375 1169.921875 507.488281 1163.660156 Z M 492.855469 1191.878906 C 490.210938 1197.210938 487.566406 1202.550781 485.015625 1207.960938 C 487.566406 1202.550781 490.210938 1197.210938 492.855469 1191.878906 Z M 479.957031 1218.980469 C 477.65625 1224.019531 475.367188 1229.078125 473.148438 1234.191406 C 475.367188 1229.078125 477.65625 1224.019531 479.957031 1218.980469 Z M 468.257812 1245.710938 C 466.136719 1250.769531 464.039062 1255.851562 461.996094 1260.96875 C 464.039062 1255.851562 466.136719 1250.769531 468.257812 1245.710938 Z M 457.433594 1272.609375 C 455.421875 1277.851562 453.449219 1283.109375 451.515625 1288.398438 C 453.449219 1283.109375 455.421875 1277.851562 457.433594 1272.609375 Z M 447.335938 1300.011719 C 445.421875 1305.441406 443.566406 1310.898438 441.738281 1316.390625 C 443.566406 1310.898438 445.421875 1305.441406 447.335938 1300.011719 Z M 439.113281 1324.320312 C 397.976562 1450.929688 378.484375 1591.371094 378.484375 1737.160156 C 378.484375 1965.03125 461.371094 2195.421875 590.296875 2381.855469 C 720.773438 2570.53125 843.441406 2732.4375 1026 2820.578125 C 1169.421875 2889.820312 1200.320312 2794.230469 1353.410156 2800.042969 C 579.660156 2633.40625 371.804688 1718.300781 439.113281 1324.320312 "/>
<path fill-rule="evenodd" fill="rgb(91.796875%, 20.384216%, 20.384216%)" fill-opacity="1" d="M 1844.609375 760.421875 C 2565.890625 924.03125 2733.171875 1742.550781 2413.070312 2355.105469 C 2512.441406 2174.488281 2584.429688 1970.308594 2609.71875 1781.410156 C 2660.941406 1398.699219 2543.390625 1090.820312 2295.53125 919.878906 C 2171.640625 834.441406 2012.339844 786.148438 1844.609375 760.421875 Z M 2406.839844 2366.148438 C 2401.441406 2375.8125 2396.011719 2385.449219 2390.449219 2394.964844 C 2396.011719 2385.449219 2401.441406 2375.8125 2406.839844 2366.148438 Z M 2381.710938 2409.605469 C 2376.691406 2417.996094 2371.660156 2426.371094 2366.53125 2434.632812 C 2371.660156 2426.367188 2376.691406 2418 2381.710938 2409.605469 Z M 2356.730469 2450.148438 C 2351.738281 2457.988281 2346.730469 2465.785156 2341.640625 2473.492188 C 2346.730469 2465.78125 2351.738281 2457.988281 2356.730469 2450.148438 Z M 2331.351562 2488.875 C 2326.238281 2496.441406 2321.078125 2503.9375 2315.871094 2511.363281 C 2321.078125 2503.9375 2326.238281 2496.445312 2331.351562 2488.875 Z M 2305.359375 2526.199219 C 2300.019531 2533.628906 2294.601562 2540.945312 2289.171875 2548.21875 C 2294.609375 2540.945312 2300.011719 2533.632812 2305.359375 2526.199219 Z M 2278.660156 2562.214844 C 2272.929688 2569.699219 2267.109375 2577.019531 2261.289062 2584.320312 C 2267.121094 2577.019531 2272.929688 2569.699219 2278.660156 2562.214844 Z M 2251.371094 2596.773438 C 2244.601562 2605.058594 2237.730469 2613.128906 2230.851562 2621.144531 C 2237.730469 2613.128906 2244.589844 2605.0625 2251.371094 2596.773438 Z M 2223.5 2629.8125 C 2214.140625 2640.527344 2204.679688 2650.992188 2195.140625 2661.171875 C 2204.679688 2650.992188 2214.140625 2640.527344 2223.5 2629.8125 Z M 2170.96875 2686.117188 C 2169.679688 2687.410156 2168.398438 2688.722656 2167.101562 2690.003906 C 2168.398438 2688.71875 2169.679688 2687.410156 2170.96875 2686.117188 Z M 2143.179688 2712.972656 C 2141.710938 2714.347656 2140.230469 2715.71875 2138.75 2717.078125 C 2140.230469 2715.71875 2141.710938 2714.347656 2143.179688 2712.972656 Z M 2114.480469 2738.652344 C 2113.191406 2739.761719 2111.898438 2740.839844 2110.601562 2741.9375 C 2111.898438 2740.839844 2113.191406 2739.761719 2114.480469 2738.652344 Z M 2085.160156 2762.75 C 2084.621094 2763.171875 2084.070312 2763.574219 2083.53125 2763.992188 C 2084.070312 2763.570312 2084.621094 2763.171875 2085.160156 2762.75 Z M 2057.980469 2783.082031 C 2057.101562 2783.710938 2056.230469 2784.363281 2055.351562 2784.988281 C 2056.230469 2784.363281 2057.101562 2783.710938 2057.980469 2783.082031 Z M 2029.859375 2802.199219 C 2027.898438 2803.464844 2025.941406 2804.757812 2023.96875 2806 C 2025.941406 2804.757812 2027.898438 2803.46875 2029.859375 2802.199219 Z M 2017.75 2809.859375 C 2014.730469 2811.71875 2011.699219 2813.542969 2008.671875 2815.339844 C 2011.699219 2813.546875 2014.730469 2811.71875 2017.75 2809.859375 Z M 2002.019531 2819.234375 C 1998.949219 2821 1995.878906 2822.71875 1992.800781 2824.414062 C 1995.878906 2822.71875 1998.949219 2821 2002.019531 2819.234375 Z M 1986.589844 2827.820312 C 1983.320312 2829.578125 1980.039062 2831.273438 1976.75 2832.953125 C 1980.039062 2831.273438 1983.320312 2829.578125 1986.589844 2827.820312 Z M 1970.941406 2835.917969 C 1967.539062 2837.613281 1964.128906 2839.222656 1960.710938 2840.828125 C 1964.121094 2839.226562 1967.539062 2837.613281 1970.941406 2835.917969 Z M 1955.179688 2843.445312 C 1950.011719 2845.804688 1944.839844 2848.082031 1939.660156 2850.234375 C 1944.839844 2848.082031 1950.011719 2845.804688 1955.179688 2843.445312 "/>
</svg>
