<?xml version="1.0" encoding="UTF-8"?>
<svg xmlns="http://www.w3.org/2000/svg" xmlns:xlink="http://www.w3.org/1999/xlink" width="3750" height="3750" viewBox="0 0 3750 3750">
<rect x="-375" y="-375" width="4500" height="4500" fill="rgb(100%, 100%, 100%)" fill-opacity="1"/>
<path fill-rule="nonzero" fill="rgb(99.609375%, 86.71875%, 28.637695%)" fill-opacity="1" d="M 3385.210938 949.269531 L 3280.929688 1041.949219 C 3280.648438 1045.730469 3259.300781 1049.160156 3216.859375 1052.25 L 3147.390625 1109.570312 C 3087.730469 1122.140625 3057.050781 1132.558594 3055.320312 1140.800781 C 2968.929688 1354.328125 2890.871094 1489.679688 2821.140625 1546.828125 L 2659.550781 1628.890625 C 2641.210938 1637.941406 2566.960938 1691.378906 2436.789062 1789.21875 C 2416.710938 1803.109375 2394.878906 1815.410156 2371.28125 1826.109375 C 2291.25 1859.371094 2179.558594 1879.191406 2036.21875 1885.570312 C 1938.28125 1888.78125 1849.039062 1884.988281 1768.511719 1874.191406 C 1656.109375 1859.140625 1560.660156 1830.449219 1482.140625 1788.128906 C 1403.558594 1753.949219 1299.640625 1689.21875 1170.390625 1593.960938 C 1111.121094 1551.96875 974.859375 1435.121094 761.625 1243.390625 C 714.632812 1204.140625 672.90625 1173.089844 636.4375 1150.238281 C 594.289062 1120.640625 543.746094 1101.890625 484.808594 1093.988281 C 483.933594 1093.871094 483.054688 1093.761719 482.175781 1093.648438 C 472.761719 1089.238281 463.71875 1080.5 455.050781 1067.429688 L 390.089844 1092.820312 C 392.339844 1111.429688 390.171875 1127.5 383.582031 1141.019531 C 348.851562 1184.441406 328.882812 1215.789062 323.683594 1235.070312 C 314.28125 1263.628906 310.261719 1290.019531 311.625 1314.25 C 314.554688 1399.871094 342.566406 1514.640625 395.667969 1658.578125 C 436.671875 1774.171875 501.253906 1894.96875 589.40625 2021 C 648.695312 2103.53125 721.335938 2179.800781 807.328125 2249.839844 C 940.175781 2353.800781 1088.339844 2438.441406 1251.820312 2503.75 C 1415.238281 2569.039062 1569.839844 2613.308594 1715.601562 2636.539062 C 1734.839844 2640.578125 1754.808594 2643.988281 1775.519531 2646.761719 C 1885.058594 2661.441406 2015.210938 2658.429688 2165.980469 2637.730469 C 2264.488281 2624.929688 2401.078125 2580.609375 2575.738281 2504.75 C 2823.949219 2389.351562 2994.730469 2261.460938 3088.070312 2121.089844 C 3127.070312 2064.808594 3151.308594 1989.570312 3160.808594 1895.351562 C 3166.21875 1845.058594 3158.808594 1735.230469 3138.558594 1565.871094 C 3135.769531 1541.371094 3140.539062 1507.210938 3152.828125 1463.398438 C 3176.679688 1386.039062 3237 1332.210938 3333.78125 1301.921875 C 3334.019531 1302.058594 3334.25 1302.140625 3334.480469 1302.171875 C 3339.109375 1302.789062 3340.640625 1282.089844 3339.070312 1240.058594 L 3347.359375 1221.648438 C 3405.070312 1173.050781 3454.578125 1113.128906 3495.921875 1041.878906 Z M 3385.210938 949.269531 "/>
<path fill-rule="nonzero" fill="rgb(65.429688%, 71.679688%, 12.939453%)" fill-opacity="1" d="M 3385.210938 949.269531 L 3385.210938 949.28125 L 3280.929688 1041.949219 C 3280.648438 1045.730469 3259.289062 1049.160156 3216.859375 1052.25 L 3147.390625 1109.570312 C 3087.730469 1122.140625 3058.429688 1132.96875 3055.320312 1140.800781 C 2982.171875 1325.429688 2912.550781 1450.871094 2850.449219 1518.738281 C 2888.519531 1561.089844 2908.199219 1606.898438 2938.230469 1628.761719 C 2945.480469 1634.039062 2948.308594 1638.941406 2955.339844 1638.988281 C 2955.570312 1638.988281 2955.808594 1639.058594 2956.039062 1639.089844 C 2961.53125 1639.828125 2968.441406 1639.359375 2976.339844 1636.441406 C 3017.878906 1621.148438 3043.371094 1611.878906 3053.371094 1610.640625 C 3096.210938 1605.351562 3125.910156 1601.570312 3142.371094 1598.539062 C 3141.160156 1587.910156 3139.851562 1577.03125 3138.558594 1565.871094 C 3135.730469 1541.378906 3139.820312 1507.011719 3152.828125 1463.398438 C 3175.96875 1385.820312 3236.988281 1332.210938 3333.78125 1301.921875 C 3334.019531 1302.058594 3334.25 1302.140625 3334.480469 1302.171875 C 3339.109375 1302.789062 3340.640625 1282.089844 3339.070312 1240.058594 L 3347.359375 1221.648438 C 3405.070312 1173.050781 3454.578125 1113.128906 3495.921875 1041.878906 L 3385.210938 949.269531 L 3385.210938 949.28125 L 3385.210938 949.269531 L 3385.210938 949.28125 Z M 3385.210938 949.269531 "/>
<path fill-rule="nonzero" fill="rgb(100%, 90.625%, 38.035583%)" fill-opacity="1" d="M 455.050781 1067.429688 L 455.050781 1067.441406 L 455.046875 1067.441406 L 455.046875 1067.46875 L 455.042969 1067.46875 L 455.042969 1067.5 L 455.039062 1067.5 L 396.996094 1090.121094 C 456.648438 1185.160156 490.132812 1244.269531 497.453125 1267.441406 L 569.167969 1478.519531 C 597.570312 1533.109375 639.828125 1592.25 702.460938 1649.03125 C 1032.238281 1948.019531 1327.648438 2133.300781 1582.789062 2210.421875 C 1619.050781 2221.378906 1656.410156 2228.640625 1694.410156 2233.730469 C 1757.789062 2242.230469 1823.210938 2241.230469 1891.171875 2236.839844 C 1981.519531 2231.011719 2125.109375 2198.230469 2318.359375 2123.75 C 2680.25 1984.269531 2878.820312 1838.070312 2917.449219 1693.730469 L 2945.878906 1634.898438 L 2855.140625 1513.640625 C 2853.019531 1513.679688 2821.941406 1546.179688 2821.140625 1546.828125 L 2659.550781 1628.890625 C 2641.210938 1637.941406 2567.460938 1692.058594 2436.789062 1789.21875 C 2417.199219 1803.78125 2395.128906 1815.988281 2371.28125 1826.109375 C 2291.5 1859.960938 2179.589844 1879.878906 2036.21875 1885.570312 C 1938.308594 1889.460938 1849.039062 1884.988281 1768.511719 1874.191406 C 1656.109375 1859.140625 1562.328125 1827.179688 1482.140625 1788.128906 C 1405.089844 1750.609375 1300.191406 1688.460938 1170.390625 1593.960938 C 1111.671875 1551.199219 976.082031 1433.75 761.625 1243.390625 C 715.832031 1202.75 672.238281 1174.121094 636.4375 1150.238281 C 593.59375 1121.648438 543.746094 1101.890625 484.808594 1093.988281 C 483.933594 1093.871094 483.054688 1093.761719 482.175781 1093.648438 C 472.761719 1089.238281 463.71875 1080.5 455.050781 1067.429688 L 455.050781 1067.441406 L 455.050781 1067.429688 L 455.050781 1067.441406 L 455.050781 1067.429688 L 455.050781 1067.441406 L 455.050781 1067.429688 L 455.050781 1067.441406 L 455.050781 1067.429688 L 455.050781 1067.441406 L 455.050781 1067.429688 L 455.050781 1067.441406 L 455.050781 1067.429688 L 455.050781 1067.441406 L 455.050781 1067.429688 L 455.050781 1067.441406 L 455.050781 1067.429688 L 455.050781 1067.441406 L 455.050781 1067.429688 L 455.050781 1067.441406 L 455.050781 1067.429688 L 455.050781 1067.441406 Z M 455.050781 1067.429688 "/>
<path fill-rule="nonzero" fill="rgb(46.263123%, 32.151794%, 7.835388%)" fill-opacity="1" d="M 3385.210938 949.269531 L 3385.210938 949.28125 L 3280.929688 1041.949219 C 3278.558594 1043.679688 3237.230469 1045.441406 3216.859375 1052.25 C 3204.539062 1056.371094 3147.390625 1109.570312 3147.390625 1109.570312 C 3129.859375 1113.261719 3114.839844 1116.769531 3102.308594 1120.089844 C 3110.808594 1144.730469 3120.949219 1161.980469 3130.71875 1173.660156 C 3150.910156 1197.808594 3171.878906 1212.328125 3195.730469 1215.53125 C 3200.308594 1216.140625 3204.96875 1216.390625 3209.699219 1216.179688 C 3219.449219 1215.75 3230.261719 1210.328125 3242.589844 1200.578125 C 3246.570312 1197.429688 3255.589844 1184.929688 3270.328125 1163.269531 C 3274.339844 1157.371094 3280.429688 1152.878906 3287.058594 1148.289062 C 3288.601562 1147.230469 3294.078125 1143.519531 3304.820312 1139.980469 C 3338.921875 1128.710938 3357.53125 1122.628906 3359.960938 1119.570312 C 3361.820312 1118.851562 3366.019531 1116.320312 3369.820312 1110.03125 C 3382.738281 1088.609375 3389.050781 1076.28125 3391.640625 1074.691406 C 3392.359375 1073.089844 3398.128906 1067.730469 3408.808594 1058.441406 C 3418.109375 1050.351562 3437.949219 1037.140625 3468.46875 1018.941406 L 3385.210938 949.269531 L 3385.210938 949.28125 L 3385.210938 949.269531 L 3385.210938 949.28125 Z M 3385.210938 949.269531 "/>
</svg>
